<svg width="183" height="160" viewBox="0 0 183 160" fill="none" xmlns="http://www.w3.org/2000/svg">
<path d="M56.9725 139.615H125.949L160.438 79.8794L125.949 20.1437H56.9725L22.4841 79.8794L56.9725 139.615Z" fill="#F2F2F2"/>
<path d="M134.693 159.759H48.2294C47.352 159.757 46.4903 159.526 45.7304 159.087C44.9705 158.648 44.3391 158.018 43.8992 157.259L0.667587 82.3789C0.230185 81.6183 0 80.7563 0 79.8789C0 79.0015 0.230185 78.1395 0.667587 77.3789L43.8993 2.5C44.3392 1.74084 44.9706 1.11043 45.7304 0.671722C46.4903 0.23302 47.352 0.00139483 48.2294 0H134.693C135.57 0.00137846 136.432 0.232987 137.192 0.671692C137.951 1.1104 138.583 1.74083 139.023 2.5L182.254 77.3789C182.692 78.1394 182.922 79.0015 182.922 79.8789C182.922 80.7563 182.692 81.6184 182.254 82.3789L139.023 157.259C138.583 158.018 137.951 158.648 137.191 159.087C136.432 159.526 135.57 159.757 134.693 159.759ZM48.2294 2.00005C47.7029 2.00088 47.1859 2.13984 46.73 2.40306C46.2741 2.66628 45.8952 3.04455 45.6312 3.50005L2.39966 78.379C2.13722 78.8353 1.99909 79.3525 1.99911 79.879C1.99914 80.4054 2.13729 80.9226 2.39977 81.379L45.6312 156.259C45.8952 156.714 46.2741 157.093 46.73 157.356C47.1859 157.619 47.7029 157.758 48.2294 157.759H134.693C135.219 157.758 135.736 157.619 136.192 157.356C136.648 157.093 137.027 156.714 137.29 156.259L180.522 81.3789C180.785 80.9226 180.923 80.4053 180.923 79.8789C180.923 79.3525 180.785 78.8352 180.522 78.3789L137.29 3.5C137.027 3.0445 136.648 2.66624 136.192 2.40302C135.736 2.13979 135.219 2.00082 134.693 2L48.2294 2.00005Z" fill="#CCCCCC"/>
<path d="M91.3974 56.9076C89.766 55.1954 87.8132 53.8215 85.6506 52.8642C83.488 51.9069 81.158 51.385 78.7937 51.3284C76.4294 51.2718 74.077 51.6815 71.8711 52.5342C69.6652 53.3869 67.6489 54.6658 65.9373 56.2979C64.2258 57.93 62.8525 59.8833 61.8961 62.0463C60.9396 64.2092 60.4186 66.5394 60.3628 68.9037C60.3071 71.2681 60.7177 73.6202 61.5712 75.8258C62.4247 78.0314 63.7044 80.0473 65.3372 81.7582C65.5339 81.9646 65.7355 82.1662 65.942 82.3631L92.0096 108.431L117.465 82.9753C120.787 79.4913 122.615 74.846 122.558 70.0322C122.501 65.2183 120.563 60.6178 117.159 57.2137C113.755 53.8095 109.154 51.8718 104.341 51.8146C99.5267 51.7574 94.8814 53.5853 91.3974 56.9076H91.3974Z" fill="#00BFA6"/>
</svg>
