<svg width="183" height="160" viewBox="0 0 183 160" fill="none" xmlns="http://www.w3.org/2000/svg">
<path d="M56.9727 139.535H125.95L160.438 79.7993L125.95 20.0635H56.9727L22.4843 79.7993L56.9727 139.535Z" fill="#F2F2F2"/>
<path d="M134.693 159.759H48.2296C47.3521 159.757 46.4905 159.526 45.7306 159.087C44.9707 158.648 44.3393 158.018 43.8994 157.259L0.66777 82.3789C0.23024 81.6184 -2.10565e-05 80.7563 1.44422e-09 79.8788C2.10594e-05 79.0014 0.230326 78.1394 0.667892 77.3789L43.8995 2.5C44.3394 1.74084 44.9708 1.11039 45.7306 0.671692C46.4905 0.232989 47.3522 0.00139483 48.2296 0H134.693C135.57 0.00137846 136.432 0.232987 137.192 0.671692C137.952 1.1104 138.583 1.74083 139.023 2.5L182.254 77.3789C182.692 78.1394 182.922 79.0015 182.922 79.8789C182.922 80.7563 182.692 81.6184 182.254 82.3789L139.023 157.259C138.583 158.018 137.952 158.648 137.192 159.087C136.432 159.526 135.57 159.757 134.693 159.759V159.759ZM48.2296 2C47.7031 2.00083 47.1861 2.13979 46.7302 2.40302C46.2742 2.66624 45.8954 3.0445 45.6314 3.5L2.39984 78.3789C2.13734 78.8352 1.9992 79.3525 1.99922 79.8789C1.99924 80.4054 2.13741 80.9226 2.39995 81.3789L45.6314 156.259C45.8954 156.714 46.2742 157.093 46.7302 157.356C47.1861 157.619 47.7031 157.758 48.2296 157.759H134.693C135.219 157.758 135.736 157.619 136.192 157.356C136.648 157.093 137.027 156.714 137.291 156.259L180.522 81.3789C180.785 80.9226 180.923 80.4053 180.923 79.8789C180.923 79.3525 180.785 78.8352 180.522 78.3789L137.291 3.5C137.027 3.0445 136.648 2.66624 136.192 2.40302C135.736 2.13979 135.219 2.00082 134.693 2H48.2296Z" fill="#CCCCCC"/>
<path d="M112.696 59.8218C112.696 71.5498 91.4612 97.2959 91.4612 97.2959C91.4612 97.2959 70.2258 71.5498 70.2258 59.8218C70.2236 57.0331 70.7706 54.2713 71.8356 51.694C72.9007 49.1168 74.463 46.7745 76.4332 44.801C78.4035 42.8275 80.7432 41.2614 83.3187 40.1921C85.8942 39.1229 88.6551 38.5714 91.4438 38.5691C94.2325 38.5668 96.9943 39.1138 99.5715 40.1788C102.149 41.2439 104.491 42.8062 106.465 44.7765C108.438 46.7468 110.004 49.0864 111.073 51.6619C112.143 54.2374 112.694 56.9984 112.697 59.7871L112.696 59.8218Z" fill="#00BFA6"/>
<path d="M91.4611 68.1642C96.0685 68.1642 99.8036 64.4292 99.8036 59.8218C99.8036 55.2144 96.0685 51.4793 91.4611 51.4793C86.8537 51.4793 83.1187 55.2144 83.1187 59.8218C83.1187 64.4292 86.8537 68.1642 91.4611 68.1642Z" fill="white"/>
</svg>
