<svg width="183" height="160" viewBox="0 0 183 160" fill="none" xmlns="http://www.w3.org/2000/svg">
<path d="M56.9725 138.575H125.949L160.438 78.8394L125.949 19.1036H56.9725L22.4841 78.8394L56.9725 138.575Z" fill="#F2F2F2"/>
<path d="M134.693 159.759H48.2294C47.352 159.757 46.4903 159.526 45.7304 159.087C44.9705 158.648 44.3391 158.018 43.8992 157.259L0.667587 82.3789C0.230185 81.6183 0 80.7563 0 79.8789C0 79.0015 0.230185 78.1395 0.667587 77.3789L43.8993 2.5C44.3392 1.74084 44.9706 1.11043 45.7304 0.671722C46.4903 0.23302 47.352 0.00139483 48.2294 0H134.693C135.57 0.00137846 136.432 0.233018 137.192 0.671722C137.951 1.11043 138.583 1.74083 139.023 2.5L182.254 77.3789C182.692 78.1394 182.922 79.0015 182.922 79.8789C182.922 80.7563 182.692 81.6184 182.254 82.3789L139.023 157.259C138.583 158.018 137.951 158.648 137.191 159.087C136.432 159.526 135.57 159.757 134.693 159.759ZM48.2294 2C47.7029 2.00083 47.1859 2.13982 46.73 2.40305C46.2741 2.66627 45.8952 3.0445 45.6312 3.5L2.39966 78.3789C2.13722 78.8353 1.99909 79.3525 1.99911 79.8789C1.99914 80.4054 2.13729 80.9226 2.39977 81.3789L45.6312 156.259C45.8952 156.714 46.2741 157.093 46.73 157.356C47.1859 157.619 47.7029 157.758 48.2294 157.759H134.693C135.219 157.758 135.736 157.619 136.192 157.356C136.648 157.093 137.027 156.714 137.29 156.259L180.522 81.3789C180.785 80.9226 180.923 80.4053 180.923 79.8789C180.923 79.3525 180.785 78.8352 180.522 78.3789L137.29 3.5C137.027 3.0445 136.648 2.66624 136.192 2.40302C135.736 2.13979 135.219 2.00082 134.693 2H48.2294Z" fill="#CCCCCC"/>
<path d="M91.461 45.8627C84.9388 45.8627 78.5631 47.7967 73.1401 51.4202C67.7171 55.0438 63.4904 60.194 60.9945 66.2197C58.4985 72.2454 57.8455 78.8759 59.1179 85.2728C60.3903 91.6696 63.531 97.5455 68.1429 102.157C72.7548 106.769 78.6307 109.91 85.0275 111.182C91.4244 112.455 98.0549 111.802 104.081 109.306C110.106 106.81 115.257 102.583 118.88 97.1603C122.504 91.7373 124.438 85.3616 124.438 78.8394C124.438 74.5088 123.585 70.2207 121.927 66.2198C120.27 62.2188 117.841 58.5835 114.779 55.5213C111.717 52.4592 108.082 50.0301 104.081 48.3729C100.08 46.7156 95.7915 45.8627 91.461 45.8627ZM91.461 55.7557C93.4176 55.7557 95.3303 56.3359 96.9572 57.423C98.5841 58.51 99.8521 60.0551 100.601 61.8628C101.35 63.6705 101.546 65.6596 101.164 67.5787C100.782 69.4977 99.8399 71.2605 98.4564 72.6441C97.0728 74.0276 95.3101 74.9699 93.391 75.3516C91.472 75.7333 89.4828 75.5374 87.6751 74.7886C85.8674 74.0398 84.3223 72.7718 83.2352 71.1449C82.1482 69.518 81.568 67.6053 81.568 65.6487C81.568 63.0249 82.6103 60.5086 84.4656 58.6533C86.3209 56.798 88.8372 55.7557 91.461 55.7557V55.7557ZM91.461 103.382C87.5528 103.364 83.7081 102.393 80.2602 100.553C76.8123 98.7128 73.8653 96.0595 71.675 92.8228C71.8336 86.2274 84.8656 82.5968 91.461 82.5968C98.0563 82.5968 111.088 86.2274 111.247 92.8228C109.054 96.057 106.107 98.7085 102.659 100.548C99.2119 102.388 95.3684 103.36 91.461 103.382V103.382Z" fill="#00BFA6"/>
</svg>
